<svg width="94" height="24" viewBox="0 0 94 24" fill="none" xmlns="http://www.w3.org/2000/svg">
<path d="M83.0556 5.55153C85.8759 5.45926 86.959 8.743 86.959 11.8317C86.959 15.5915 85.877 18.3698 83.1101 18.3698C80.0445 18.3698 79.2864 14.737 79.2864 11.8317C79.2864 8.92648 80.1556 5.55153 83.0567 5.55153H83.0556ZM83.1091 0C77.0354 0 72.8867 4.63833 72.8867 11.7741C72.8867 19.5032 76.9778 24 83.1091 24C88.885 24 93.3608 19.5703 93.3608 11.8317C93.3608 5.83775 90.0802 0 83.1091 0Z" fill="#01579B"/>
<path d="M14.4518 15.5757H9.76628L12.0603 7.14726L14.4528 15.5757H14.4518ZM7.26783 23.9989L8.34878 20.4709H15.7445L16.6221 23.9989H24.0147L15.9007 0H8.34878L0 23.9989H7.26783Z" fill="#01579B"/>
<path d="M70.4967 24H66.3018L65.981 21.1671C64.812 22.616 62.8503 24 59.4597 24C53.9427 24 48.9951 20.1952 48.9951 12.3056C48.9951 5.07658 53.3168 0 60.3121 0C65.4987 0 69.6736 2.94194 70.5428 8.505H63.8202C63.3127 6.6503 62.02 5.64169 60.1883 5.64169C57.3984 5.64169 56.0774 8.28483 56.0774 12.2742C56.0774 15.4814 57.0378 18.4034 60.6067 18.4034C62.0514 18.4034 63.882 17.3665 64.2427 15.7959H61.1194V10.8913L70.4956 10.8703V24H70.4967Z" fill="#01579B"/>
<path d="M26.0509 0H37.8731C41.484 0 43.9814 0.9457 45.5677 2.5645C46.9516 3.9149 47.6593 5.7371 47.6593 8.0657V8.13175C47.6593 11.7437 45.0854 14.1394 42.1498 15.3881L47.7348 23.9979H40.4701L35.4659 16.468H32.5974V23.9979H26.0498V0H26.0509ZM36.9191 11.339C39.146 11.339 40.4293 10.2591 40.4293 8.5375V8.4704C40.4293 6.6136 39.0789 5.66895 36.8845 5.66895H32.5984V11.339H36.9191Z" fill="#01579B"/>
</svg>
